<svg xmlns="http://www.w3.org/2000/svg" xmlns:svgjs="http://svgjs.com/svgjs" xmlns:xlink="http://www.w3.org/1999/xlink" id="SvgjsSvg1052" width="288" height="288" version="1.1"><g id="SvgjsG1054"><svg xmlns="http://www.w3.org/2000/svg" width="288" height="288" viewBox="0 0 128 128"><path fill="#1976d2" d="M18.814 114.123L8.76 1.352h110.48l-10.064 112.754-45.243 12.543-45.119-12.526z" class="color1572B6 svgShape"/><path fill="#1976d2" d="M64.001 117.062l36.559-10.136 8.601-96.354h-45.16v106.49z" class="color33A9DC svgShape"/><path fill="#fff" d="M64.001 51.429h18.302l1.264-14.163H64.001V23.435h34.682l-.332 3.711-3.4 38.114h-30.95V51.429z" class="colorfff svgShape"/><path fill="#ebebeb" d="M64.083 87.349l-.061.018-15.403-4.159-.985-11.031H33.752l1.937 21.717 28.331 7.863.063-.018v-14.39z" class="colorEBEBEB svgShape"/><path fill="#fff" d="M81.127 64.675l-1.666 18.522-15.426 4.164v14.39l28.354-7.858.208-2.337 2.406-26.881H81.127z" class="colorfff svgShape"/><path fill="#ebebeb" d="M64.048 23.435v13.831H30.64l-.277-3.108-.63-7.012-.331-3.711h34.646zm-.047 27.996v13.831H48.792l-.277-3.108-.631-7.012-.33-3.711h16.447z" class="colorEBEBEB svgShape"/></svg></g></svg>