<svg id="SvgjsSvg1044" width="288" height="288" xmlns="http://www.w3.org/2000/svg" version="1.1" xmlns:xlink="http://www.w3.org/1999/xlink" xmlns:svgjs="http://svgjs.com/svgjs"><defs id="SvgjsDefs1045"></defs><g id="SvgjsG1046"><svg xmlns="http://www.w3.org/2000/svg" viewBox="0 0 128 128" width="288" height="288"><path fill="#1976d2" d="M19.037 113.876L9.032 1.661h109.936l-10.016 112.198-45.019 12.48z" class="colorE44D26 svgShape"></path><path fill="#1976d2" d="M64 116.8l36.378-10.086 8.559-95.878H64z" class="colorF16529 svgShape"></path><path fill="#ebebeb" d="M64 52.455H45.788L44.53 38.361H64V24.599H29.489l.33 3.692 3.382 37.927H64zm0 35.743l-.061.017-15.327-4.14-.979-10.975H33.816l1.928 21.609 28.193 7.826.063-.017z" class="colorEBEBEB svgShape"></path><path fill="#ffffff" d="M63.952 52.455v13.763h16.947l-1.597 17.849-15.35 4.143v14.319l28.215-7.82.207-2.325 3.234-36.233.335-3.696h-3.708zm0-27.856v13.762h33.244l.276-3.092.628-6.978.329-3.692z" class="colorfff svgShape"></path></svg></g></svg>